<?xml version="1.0"?>
<svg xmlns="http://www.w3.org/2000/svg" xmlns:xlink="http://www.w3.org/1999/xlink" xmlns:svgjs="http://svgjs.com/svgjs" version="1.1" width="512" height="512" x="0" y="0" viewBox="0 0 512 512" style="enable-background:new 0 0 512 512" xml:space="preserve" class=""><g><script/><g xmlns="http://www.w3.org/2000/svg"><path d="m477.362 34.514h-442.725c-19.099 0-34.637 15.538-34.637 34.637v277.059c0 19.099 15.538 34.637 34.637 34.637h72.717c4.143 0 7.5-3.358 7.5-7.5s-3.357-7.5-7.5-7.5h-72.717c-10.828 0-19.637-8.809-19.637-19.637v-20.585h482v20.585c0 10.828-8.81 19.637-19.638 19.637-53.939 0-248.311 0-335.009 0-4.143 0-7.5 3.358-7.5 7.5s3.357 7.5 7.5 7.5h75.138l-21.673 54.028h-7.848c-12.298 0-22.304 10.005-22.304 22.304v11.76c0 4.713 3.834 8.547 8.547 8.547h163.573c4.713 0 8.547-3.834 8.547-8.547v-11.76c0-12.298-10.006-22.304-22.304-22.304h-7.848l-21.672-54.028h182.854c19.1 0 34.638-15.538 34.638-34.637v-277.059c-.001-19.099-15.539-34.637-34.639-34.637zm-146.029 422.665v5.307h-150.667v-5.307c0-4.027 3.276-7.304 7.304-7.304h136.06c4.027 0 7.303 3.277 7.303 7.304zm-31.314-22.304h-88.039l21.673-54.028h44.693zm-230.985-357.75v26.414h-26.415v-26.414zm-26.415 150.659v-26.415h26.415v26.415zm41.415-26.415h26.415v26.415h-26.415zm0-15v-26.415h26.415v26.415zm-15 0h-26.415v-26.415h26.415zm-26.415 56.415h67.83v67.83h-67.83zm67.83-97.83h-26.415v-26.415h26.415zm-41.415 0h-26.415v-26.415h26.415zm41.415-41.415h-26.415v-26.414h26.415zm358.931 28.822v12.61h-12.61v-12.61zm-12.61-15v-12.61h12.61v12.61zm12.61-27.61h-12.61v-12.61h12.61zm-12.61 70.22h12.61v12.61h-12.61zm27.61 150.654v-40.324c0-4.142-3.357-7.5-7.5-7.5s-7.5 3.358-7.5 7.5v40.324h-12.61v-123.044h12.61v47.72c0 4.142 3.357 7.5 7.5 7.5s7.5-3.358 7.5-7.5c0-190.085.009-162.985.009-165.676 0-4.142-3.357-7.5-7.5-7.5h-291.971c-4.143 0-7.5 3.358-7.5 7.5s3.357 7.5 7.5 7.5h256.852v233.5h-316.32v-233.5h24.469c4.143 0 7.5-3.358 7.5-7.5s-3.357-7.5-7.5-7.5c-11.404 0 17.238-.001-114.799-.001-4.15 0-7.509 3.356-7.509 7.501v241h-12.611v-241.474c0-10.828 8.809-19.637 19.637-19.637h442.726c10.828 0 19.638 8.809 19.638 19.637v241.474z" fill="#a6abbc" data-original="#000000" style="" class=""/><path d="m283.61 353.236c4.143 0 7.5-3.358 7.5-7.5s-3.357-7.5-7.5-7.5h-55.222c-4.143 0-7.5 3.358-7.5 7.5s3.357 7.5 7.5 7.5z" fill="#a6abbc" data-original="#000000" style="" class=""/><path d="m372.06 276.222c.748 2.997 3.062 5.373 6.038 6.198 2.977.827 6.184-.017 8.371-2.203l4.28-4.281 10.623 10.623c3.361 3.363 8.799 3.357 12.15.003l17.982-17.982c3.345-3.346 3.349-8.792.007-12.142-1.086-1.088 3.938 3.939-10.633-10.632l4.284-4.283c2.183-2.185 3.026-5.391 2.2-8.367-.825-2.977-3.199-5.29-6.197-6.039l-51.56-12.865c-2.907-.723-6.03.143-8.148 2.26-2.119 2.118-2.986 5.24-2.263 8.154zm34.484-37.294-.805.804c-3.354 3.355-3.359 8.793.001 12.147l10.625 10.625-8.917 8.917-10.629-10.629c-3.345-3.342-8.793-3.345-12.145.003l-.804.804-7.538-30.209z" fill="#a6abbc" data-original="#000000" style="" class=""/><path d="m146.56 89.734c-4.687 0-8.5 3.813-8.5 8.5v25.609c0 4.687 3.813 8.5 8.5 8.5h5.305v33.317h-5.305c-4.687 0-8.5 3.813-8.5 8.5v25.609c0 4.687 3.813 8.5 8.5 8.5h5.305v33.317h-5.305c-4.687 0-8.5 3.813-8.5 8.5v25.609c0 4.687 3.813 8.5 8.5 8.5h25.609c4.688 0 8.501-3.813 8.501-8.5v-5.305h40.22v5.305c0 4.687 3.813 8.5 8.5 8.5h25.609c4.688 0 8.501-3.813 8.501-8.5v-5.305h40.22v5.305c0 4.687 3.813 8.5 8.5 8.5h25.609c4.688 0 8.501-3.813 8.501-8.5v-25.605c0-4.687-3.813-8.5-8.501-8.5h-5.305v-33.317h5.305c4.688 0 8.501-3.813 8.501-8.5v-25.609c0-4.687-3.813-8.5-8.501-8.5h-5.305v-33.317h5.305c4.688 0 8.501-3.813 8.501-8.5v-25.612c0-4.687-3.813-8.5-8.501-8.5h-25.609c-4.687 0-8.5 3.813-8.5 8.5v5.305h-40.22v-5.305c0-4.687-3.813-8.5-8.501-8.5h-25.609c-4.687 0-8.5 3.813-8.5 8.5v5.305h-40.22v-5.305c0-4.687-3.813-8.5-8.501-8.5h-25.609zm6.5 15h12.61v12.61h-12.61zm12.61 88.538h-12.61v-12.61h12.61zm0 75.927h-12.61v-12.61h12.61zm15-13.805v-5.305c0-4.687-3.813-8.5-8.501-8.5h-5.305v-33.317h2.344c7.599 22.269 26.826 40.075 51.682 46.708v.415h-40.22zm49.128-123.05h24.793c28.51 5.285 49.128 28.16 49.128 54.64 0 26.411-20.533 49.255-48.943 54.605h-25.165c-28.41-5.351-48.943-28.194-48.943-54.605.002-26.48 20.62-49.355 49.13-54.64zm18.702 136.855h-12.61v-12.61h12.61zm82.83 0h-12.61v-12.61h12.61zm-13.806-27.61h-5.305c-4.687 0-8.5 3.813-8.5 8.5v5.305h-40.219v-.415c24.855-6.633 44.083-24.439 51.682-46.708h2.343v33.318zm1.196-60.928h12.61v12.61h-12.61zm0-75.927h12.61v12.61h-12.61zm-15 13.805v5.305c0 4.687 3.813 8.5 8.5 8.5h5.305v33.317h-2.352c-7.605-22.258-26.824-40.046-51.673-46.674v-.448zm-67.83-13.805h12.61v12.61h-12.61zm-15 13.805v.448c-24.848 6.628-44.068 24.416-51.673 46.674h-2.353v-33.317h5.305c4.688 0 8.501-3.813 8.501-8.5v-5.305z" fill="#a6abbc" data-original="#000000" style="" class=""/></g></g></svg>
