<svg id="Capa_1" enable-background="new 0 0 512 512" height="512" viewBox="0 0 512 512" width="512" xmlns="http://www.w3.org/2000/svg"><g><g><path d="m169.704 479.067h-11.768c-4.142 0-7.5 3.358-7.5 7.5s3.358 7.5 7.5 7.5h11.768c4.142 0 7.5-3.358 7.5-7.5s-3.358-7.5-7.5-7.5z"/><path d="m123.613 479.067h-11.768c-4.142 0-7.5 3.358-7.5 7.5s3.358 7.5 7.5 7.5h11.768c4.142 0 7.5-3.358 7.5-7.5s-3.358-7.5-7.5-7.5z"/><path d="m400.154 479.067h-11.768c-4.142 0-7.5 3.358-7.5 7.5s3.358 7.5 7.5 7.5h11.768c4.142 0 7.5-3.358 7.5-7.5s-3.358-7.5-7.5-7.5z"/><path d="m261.884 479.067h-11.768c-4.142 0-7.5 3.358-7.5 7.5s3.358 7.5 7.5 7.5h11.768c4.142 0 7.5-3.358 7.5-7.5s-3.358-7.5-7.5-7.5z"/><path d="m77.523 479.067h-11.286v-22.804c0-5.79-4.71-10.5-10.5-10.5h-22.804v-11.286c0-4.142-3.358-7.5-7.5-7.5s-7.5 3.358-7.5 7.5v11.286h-7.433c-5.79 0-10.5 4.71-10.5 10.5v45.237c0 5.79 4.71 10.5 10.5 10.5h45.237c5.79 0 10.5-4.71 10.5-10.5v-7.433h11.286c4.142 0 7.5-3.358 7.5-7.5s-3.357-7.5-7.5-7.5zm-26.286 17.933h-36.237v-36.237h36.237z"/><path d="m215.794 479.067h-11.768c-4.142 0-7.5 3.358-7.5 7.5s3.358 7.5 7.5 7.5h11.768c4.142 0 7.5-3.358 7.5-7.5s-3.358-7.5-7.5-7.5z"/><path d="m354.064 479.067h-11.768c-4.142 0-7.5 3.358-7.5 7.5s3.358 7.5 7.5 7.5h11.768c4.142 0 7.5-3.358 7.5-7.5s-3.357-7.5-7.5-7.5z"/><path d="m307.974 479.067h-11.768c-4.142 0-7.5 3.358-7.5 7.5s3.358 7.5 7.5 7.5h11.768c4.142 0 7.5-3.358 7.5-7.5s-3.358-7.5-7.5-7.5z"/><path d="m32.933 111.846c0-4.142-3.358-7.5-7.5-7.5s-7.5 3.358-7.5 7.5v11.768c0 4.142 3.358 7.5 7.5 7.5s7.5-3.358 7.5-7.5z"/><path d="m32.933 157.936c0-4.142-3.358-7.5-7.5-7.5s-7.5 3.358-7.5 7.5v11.768c0 4.142 3.358 7.5 7.5 7.5s7.5-3.358 7.5-7.5z"/><path d="m32.933 250.116c0-4.142-3.358-7.5-7.5-7.5s-7.5 3.358-7.5 7.5v11.768c0 4.142 3.358 7.5 7.5 7.5s7.5-3.358 7.5-7.5z"/><path d="m32.933 204.026c0-4.142-3.358-7.5-7.5-7.5s-7.5 3.358-7.5 7.5v11.768c0 4.142 3.358 7.5 7.5 7.5s7.5-3.358 7.5-7.5z"/><path d="m25.433 380.887c-4.142 0-7.5 3.358-7.5 7.5v11.768c0 4.142 3.358 7.5 7.5 7.5s7.5-3.358 7.5-7.5v-11.768c0-4.142-3.358-7.5-7.5-7.5z"/><path d="m32.933 342.296c0-4.142-3.358-7.5-7.5-7.5s-7.5 3.358-7.5 7.5v11.768c0 4.142 3.358 7.5 7.5 7.5s7.5-3.358 7.5-7.5z"/><path d="m32.933 296.207c0-4.142-3.358-7.5-7.5-7.5s-7.5 3.358-7.5 7.5v11.768c0 4.142 3.358 7.5 7.5 7.5s7.5-3.358 7.5-7.5z"/><path d="m342.296 32.933h11.768c4.142 0 7.5-3.358 7.5-7.5s-3.358-7.5-7.5-7.5h-11.768c-4.142 0-7.5 3.358-7.5 7.5s3.358 7.5 7.5 7.5z"/><path d="m157.936 32.933h11.768c4.142 0 7.5-3.358 7.5-7.5s-3.358-7.5-7.5-7.5h-11.768c-4.142 0-7.5 3.358-7.5 7.5s3.357 7.5 7.5 7.5z"/><path d="m296.206 32.933h11.768c4.142 0 7.5-3.358 7.5-7.5s-3.358-7.5-7.5-7.5h-11.768c-4.142 0-7.5 3.358-7.5 7.5s3.358 7.5 7.5 7.5z"/><path d="m388.387 32.933h11.768c4.142 0 7.5-3.358 7.5-7.5s-3.358-7.5-7.5-7.5h-11.768c-4.142 0-7.5 3.358-7.5 7.5s3.358 7.5 7.5 7.5z"/><path d="m111.846 32.933h11.768c4.142 0 7.5-3.358 7.5-7.5s-3.358-7.5-7.5-7.5h-11.768c-4.142 0-7.5 3.358-7.5 7.5s3.358 7.5 7.5 7.5z"/><path d="m204.026 32.933h11.768c4.142 0 7.5-3.358 7.5-7.5s-3.358-7.5-7.5-7.5h-11.768c-4.142 0-7.5 3.358-7.5 7.5s3.358 7.5 7.5 7.5z"/><path d="m250.116 32.933h11.768c4.142 0 7.5-3.358 7.5-7.5s-3.358-7.5-7.5-7.5h-11.768c-4.142 0-7.5 3.358-7.5 7.5s3.358 7.5 7.5 7.5z"/><path d="m479.067 261.884c0 4.142 3.358 7.5 7.5 7.5s7.5-3.358 7.5-7.5v-11.768c0-4.142-3.358-7.5-7.5-7.5s-7.5 3.358-7.5 7.5z"/><path d="m486.567 131.113c4.142 0 7.5-3.358 7.5-7.5v-11.768c0-4.142-3.358-7.5-7.5-7.5s-7.5 3.358-7.5 7.5v11.768c0 4.142 3.358 7.5 7.5 7.5z"/><path d="m479.067 307.974c0 4.142 3.358 7.5 7.5 7.5s7.5-3.358 7.5-7.5v-11.768c0-4.142-3.358-7.5-7.5-7.5s-7.5 3.358-7.5 7.5z"/><path d="m479.067 354.064c0 4.142 3.358 7.5 7.5 7.5s7.5-3.358 7.5-7.5v-11.768c0-4.142-3.358-7.5-7.5-7.5s-7.5 3.358-7.5 7.5z"/><path d="m479.067 400.154c0 4.142 3.358 7.5 7.5 7.5s7.5-3.358 7.5-7.5v-11.768c0-4.142-3.358-7.5-7.5-7.5s-7.5 3.358-7.5 7.5z"/><path d="m479.067 215.793c0 4.142 3.358 7.5 7.5 7.5s7.5-3.358 7.5-7.5v-11.768c0-4.142-3.358-7.5-7.5-7.5s-7.5 3.358-7.5 7.5z"/><path d="m479.067 169.704c0 4.142 3.358 7.5 7.5 7.5s7.5-3.358 7.5-7.5v-11.768c0-4.142-3.358-7.5-7.5-7.5s-7.5 3.358-7.5 7.5z"/><path d="m501.5 445.763h-7.433v-11.286c0-4.142-3.358-7.5-7.5-7.5s-7.5 3.358-7.5 7.5v11.286h-22.804c-5.79 0-10.5 4.71-10.5 10.5v22.804h-11.286c-4.142 0-7.5 3.358-7.5 7.5s3.358 7.5 7.5 7.5h11.286v7.433c0 5.79 4.71 10.5 10.5 10.5h45.237c5.79 0 10.5-4.71 10.5-10.5v-45.237c0-5.79-4.71-10.5-10.5-10.5zm-4.5 51.237h-36.237v-36.237h36.237z"/><path d="m501.5 0h-45.237c-5.79 0-10.5 4.71-10.5 10.5v7.433h-11.286c-4.142 0-7.5 3.358-7.5 7.5s3.358 7.5 7.5 7.5h11.286v22.804c0 5.79 4.71 10.5 10.5 10.5h22.804v11.286c0 4.142 3.358 7.5 7.5 7.5s7.5-3.358 7.5-7.5v-11.286h7.433c5.79 0 10.5-4.71 10.5-10.5v-45.237c0-5.79-4.71-10.5-10.5-10.5zm-4.5 51.237h-36.237v-36.237h36.237z"/><path d="m10.5 66.237h7.433v11.286c0 4.142 3.358 7.5 7.5 7.5s7.5-3.358 7.5-7.5v-11.286h22.804c5.79 0 10.5-4.71 10.5-10.5v-22.804h11.286c4.142 0 7.5-3.358 7.5-7.5s-3.358-7.5-7.5-7.5h-11.286v-7.433c0-5.79-4.71-10.5-10.5-10.5h-45.237c-5.79 0-10.5 4.71-10.5 10.5v45.237c0 5.79 4.71 10.5 10.5 10.5zm4.5-51.237h36.237v36.237h-36.237z"/><path d="m313.5 268.169v26.899c0 4.142 3.358 7.5 7.5 7.5s7.5-3.358 7.5-7.5v-26.899c0-4.142-3.358-7.5-7.5-7.5s-7.5 3.358-7.5 7.5z"/><path d="m183.5 268.169v26.899c0 4.142 3.358 7.5 7.5 7.5s7.5-3.358 7.5-7.5v-26.899c0-4.142-3.358-7.5-7.5-7.5s-7.5 3.358-7.5 7.5z"/><path d="m438.987 206.684c0-12.085-3.082-24.043-8.911-34.582-2.004-3.624-6.567-4.937-10.193-2.933-3.625 2.005-4.938 6.569-2.933 10.193 4.604 8.322 7.037 17.77 7.037 27.321 0 17.85-8.322 33.783-21.282 44.152-7.668-23.31-22.272-44.485-42.654-61.36-7.052-5.839-14.637-11.024-22.648-15.521l-3.173-12.993c9.331-6.8 20.807-10.824 33.211-10.824 9.712 0 19.303 2.516 27.738 7.277 3.606 2.036 8.182.763 10.218-2.845 2.036-3.607.763-8.182-2.845-10.218-10.68-6.028-22.821-9.214-35.111-9.214-13.533 0-26.189 3.794-36.989 10.352l-12.843-52.586c-.95-3.893-3.968-6.862-7.876-7.749-3.909-.887-7.913.489-10.451 3.59l-19.567 23.916-14.808-23.719c-1.93-3.093-5.259-4.939-8.905-4.94h-.001c-3.646 0-6.975 1.846-8.905 4.937l-14.785 23.667-19.477-23.852c-2.535-3.104-6.537-4.482-10.445-3.602-3.909.882-6.931 3.848-7.886 7.74l-12.913 52.623c-10.81-6.574-23.479-10.377-37.03-10.377-39.451 0-71.546 32.096-71.546 71.546 0 24.95 12.851 46.937 32.269 59.742-1.418 7.441-2.167 15.083-2.167 22.878 0 65.509 52.16 120.36 121.414 133.324 9.354 5.118 20.078 8.032 31.471 8.032 11.398 0 22.224-2.908 31.685-8.098 23.85-4.509 46.344-14.049 65.329-27.949 27.074-19.823 45.819-47.503 52.783-77.941.924-4.038-1.601-8.06-5.638-8.984-4.039-.927-8.06 1.601-8.984 5.638-9.029 39.465-39.642 71.343-79.668 86.894 3.721-5.857 6.57-12.375 8.321-19.41 1-4.02-1.447-8.089-5.466-9.089-4.019-.999-8.089 1.447-9.089 5.466-5.639 22.652-25.9 38.473-49.272 38.473-28.001 0-50.782-22.781-50.782-50.782 0-14.551 6.172-27.669 16.012-36.934 5.752 8.345 15.626 14.438 27.27 16.295v35.762c0 4.142 3.358 7.5 7.5 7.5s7.5-3.358 7.5-7.5v-35.76c11.643-1.857 21.516-7.948 27.268-16.292 5.48 5.134 9.862 11.494 12.645 18.741 1.484 3.867 5.821 5.8 9.69 4.313 3.867-1.484 5.798-5.823 4.313-9.69-4.403-11.467-11.907-21.209-21.31-28.444.037-.592.057-1.188.057-1.788 0-18.615-18.017-33.759-40.164-33.759s-40.164 15.145-40.164 33.759c0 .578.018 1.153.052 1.725-15.597 12.036-25.671 30.894-25.671 52.074 0 13.043 3.831 25.201 10.406 35.438-48.535-18.787-82.509-61.474-82.509-111.013 0-66.848 61.855-121.233 137.885-121.233 35.26 0 68.815 11.705 94.485 32.959 25.308 20.955 40.595 49.214 43.044 79.573.333 4.129 3.955 7.213 8.079 6.873 4.129-.333 7.206-3.95 6.873-8.079-.353-4.37-.94-8.7-1.751-12.978 19.411-12.806 32.257-34.79 32.257-59.735zm-182.987 85.637c13.875 0 25.164 8.416 25.164 18.759s-11.289 18.759-25.164 18.759-25.164-8.415-25.164-18.759 11.289-18.759 25.164-18.759zm-81.412-118.277c-31.095 17.502-54.649 44.711-65.265 76.815-12.976-10.368-21.311-26.312-21.311-44.175 0-31.18 25.367-56.546 56.546-56.546 12.415 0 23.899 4.031 33.235 10.841zm81.412-20.973c-22.793 0-44.433 4.475-63.883 12.479l14.802-60.322 17.746 21.731c2.137 2.617 5.428 4.056 8.796 3.838 3.372-.213 6.453-2.051 8.242-4.916l14.295-22.884 14.317 22.932c1.788 2.864 4.868 4.703 8.237 4.918 3.369.213 6.658-1.216 8.796-3.83l17.829-21.791 14.722 60.281c-19.837-8.133-41.568-12.436-63.899-12.436z"/></g></g></svg>