<?xml version="1.0" encoding="iso-8859-1"?>
<!-- Generator: Adobe Illustrator 19.0.0, SVG Export Plug-In . SVG Version: 6.00 Build 0)  -->
<svg version="1.1" id="Capa_1" xmlns="http://www.w3.org/2000/svg" xmlns:xlink="http://www.w3.org/1999/xlink" x="0px" y="0px"
	 viewBox="0 0 512 512" style="enable-background:new 0 0 512 512;" xml:space="preserve">
<g>
	<g>
		<g>
			<path d="M469.333,0H42.667C19.114,0.028,0.028,19.114,0,42.667v358.4c0.028,23.553,19.114,42.639,42.667,42.667H179.2V460.8
				h-59.733c-2.264-0.001-4.435,0.897-6.035,2.498c-1.601,1.601-2.499,3.772-2.498,6.035v34.133
				c-0.001,2.264,0.897,4.435,2.498,6.035c1.601,1.601,3.772,2.499,6.035,2.498h273.067c2.264,0.001,4.435-0.897,6.035-2.498
				c1.601-1.601,2.499-3.772,2.498-6.035v-34.133c0.001-2.264-0.897-4.435-2.498-6.035c-1.601-1.601-3.772-2.499-6.035-2.498H332.8
				v-17.067h136.533c23.553-0.028,42.639-19.114,42.667-42.667v-358.4C511.972,19.114,492.886,0.028,469.333,0z M17.067,332.303
				c8.857,9.217,22.653,11.656,34.133,6.035V358.4H17.067V332.303z M25.6,311.467V307.2h25.6v4.267c0,7.069-5.731,12.8-12.8,12.8
				C31.331,324.267,25.6,318.536,25.6,311.467z M384,477.867v17.067H128v-17.067H384z M196.267,460.8v-17.067h119.467V460.8H196.267
				z M494.933,401.067c-0.015,14.132-11.468,25.585-25.6,25.6H42.667c-14.132-0.015-25.585-11.468-25.6-25.6v-25.6h477.867V401.067z
				 M93.867,102.4h17.067v17.067H93.867c-4.713,0-8.533,3.82-8.533,8.533s3.821,8.533,8.533,8.533h17.067V153.6H93.867
				c-4.713,0-8.533,3.82-8.533,8.533s3.821,8.533,8.533,8.533h17.067v17.067H93.867c-4.713,0-8.533,3.82-8.533,8.533
				s3.821,8.533,8.533,8.533h17.067v17.067H93.867c-4.713,0-8.533,3.82-8.533,8.533s3.821,8.533,8.533,8.533h17.067V256H93.867
				c-4.713,0-8.533,3.82-8.533,8.533s3.821,8.533,8.533,8.533h17.067v17.067H93.867c-4.713,0-8.533,3.82-8.533,8.533
				s3.821,8.533,8.533,8.533h17.067v17.067H93.867c-4.713,0-8.533,3.821-8.533,8.533c0,4.713,3.821,8.533,8.533,8.533h17.067V358.4
				H68.267V68.267h42.667v17.067H93.867c-4.713,0-8.533,3.821-8.533,8.533C85.333,98.579,89.154,102.4,93.867,102.4z M494.933,358.4
				H128v-20.063c11.48,5.622,25.277,3.182,34.133-6.035c5.596,5.773,13.293,9.031,21.333,9.031s15.737-3.258,21.333-9.031
				c5.596,5.773,13.293,9.031,21.333,9.031c8.04,0,15.737-3.258,21.333-9.031c5.596,5.773,13.293,9.031,21.333,9.031
				c8.04,0,15.737-3.258,21.333-9.031c5.596,5.773,13.293,9.031,21.333,9.031c8.04,0,15.737-3.258,21.333-9.031
				c5.596,5.773,13.293,9.031,21.333,9.031c8.04,0,15.737-3.258,21.333-9.031c5.596,5.773,13.293,9.031,21.333,9.031
				c8.04,0,15.737-3.258,21.333-9.031c5.596,5.773,13.293,9.031,21.333,9.031c8.04,0,15.737-3.258,21.333-9.031
				c8.856,9.217,22.653,11.656,34.133,6.035V358.4z M128,311.467V307.2h25.6v4.267c0,7.069-5.731,12.8-12.8,12.8
				C133.731,324.267,128,318.536,128,311.467z M170.667,311.467V307.2h25.6v4.267c0,7.069-5.731,12.8-12.8,12.8
				S170.667,318.536,170.667,311.467z M213.333,311.467V307.2h25.6v4.267c0,7.069-5.731,12.8-12.8,12.8
				C219.064,324.267,213.333,318.536,213.333,311.467z M256,311.467V307.2h25.6v4.267c0,7.069-5.731,12.8-12.8,12.8
				C261.731,324.267,256,318.536,256,311.467z M298.667,311.467V307.2h25.6v4.267c0,7.069-5.731,12.8-12.8,12.8
				C304.397,324.267,298.667,318.536,298.667,311.467z M341.333,311.467V307.2h25.6v4.267c0,7.069-5.731,12.8-12.8,12.8
				C347.064,324.267,341.333,318.536,341.333,311.467z M384,311.467V307.2h25.6v4.267c0,7.069-5.731,12.8-12.8,12.8
				C389.731,324.267,384,318.536,384,311.467z M426.667,311.467V307.2h25.6v4.267c0,7.069-5.731,12.8-12.8,12.8
				C432.397,324.267,426.667,318.536,426.667,311.467z M494.933,311.467c0,7.069-5.731,12.8-12.8,12.8s-12.8-5.731-12.8-12.8V307.2
				h25.6V311.467z M494.933,290.133H128V68.267c-0.012-9.421-7.646-17.054-17.067-17.067H68.267
				c-9.421,0.012-17.054,7.646-17.067,17.067v221.867H17.067V42.667c0.015-14.132,11.468-25.585,25.6-25.6h426.667
				c14.132,0.015,25.585,11.468,25.6,25.6V290.133z"/>
			<path d="M461.158,42.308c-13.331-13.331-34.944-13.331-48.275,0L274.1,181.092l-0.006,0.01c-0.376,0.457-0.704,0.951-0.98,1.475
				c-0.34,0.425-0.639,0.882-0.894,1.364l-0.012,0.018L248.075,244.3c-1.265,3.169-0.521,6.787,1.892,9.2
				c2.413,2.413,6.031,3.157,9.2,1.892l60.342-24.133l0.018-0.012c0.949-0.618,1.895-1.242,2.836-1.871l0.012-0.009l31.407-31.407
				c5.222,9.452,15.153,15.335,25.951,15.374h59.733c14.047,0.005,26.197-9.782,29.184-23.507s-3.997-27.676-16.776-33.509
				c-2-14.173-10.975-26.398-23.898-32.552l33.181-33.182C474.489,77.253,474.489,55.639,461.158,42.308z M400.813,78.512
				l24.142,24.142l-12.067,12.067l-24.142-24.142L400.813,78.512z M271.317,232.15l11.935-29.84l17.904,17.905L271.317,232.15z
				 M316.342,211.267L292.2,187.125l84.479-84.479l24.142,24.142L316.342,211.267z M435.191,161.442
				c-0.592,4.455,2.376,8.604,6.783,9.483c6.452,1.288,10.875,7.26,10.227,13.807c-0.648,6.547-6.156,11.536-12.735,11.534h-59.733
				c-6.578-0.02-12.064-5.032-12.677-11.581l47.544-47.544C426.293,139.446,434.838,149.53,435.191,161.442z M449.092,78.517
				l-12.071,12.071l-24.142-24.142l12.071-12.071c4.31-4.327,10.602-6.023,16.503-4.446c5.9,1.577,10.509,6.185,12.085,12.085
				C455.114,67.914,453.419,74.207,449.092,78.517z"/>
			<path d="M272.385,121.547c2.985-13.729-4.003-27.682-16.785-33.514c-2.914-21.11-20.957-36.833-42.267-36.833
				s-39.353,15.723-42.267,36.833c-12.782,5.832-19.77,19.785-16.785,33.514c2.985,13.729,15.135,23.521,29.185,23.519H243.2
				C257.25,145.068,269.4,135.276,272.385,121.547z M255.936,116.482c-0.658,6.54-6.163,11.518-12.736,11.518h-59.733
				c-6.573,0-12.078-4.978-12.736-11.518s3.744-12.515,10.186-13.824c3.988-0.797,6.859-4.299,6.858-8.367
				c0-0.225-0.017-0.508-0.042-0.792c0.202-13.993,11.602-25.231,25.596-25.233s25.397,11.232,25.604,25.225
				c-0.025,0.283-0.042,0.575-0.042,0.8c-0.001,4.067,2.87,7.569,6.858,8.367C252.192,103.967,256.595,109.942,255.936,116.482z"/>
			<path d="M221.867,179.2H204.8c-3.005,0.017-5.951,0.837-8.533,2.375c-2.582-1.538-5.528-2.358-8.533-2.375h-17.067
				c-9.421,0.012-17.054,7.646-17.067,17.067v17.067c0.012,9.421,7.646,17.054,17.067,17.067h17.067
				c3.005-0.017,5.951-0.837,8.533-2.375c2.582,1.538,5.528,2.358,8.533,2.375h17.067c9.421-0.012,17.054-7.646,17.067-17.067
				v-17.067C238.921,186.846,231.287,179.212,221.867,179.2z M187.733,213.333h-17.067v-17.067h17.067V213.333z M204.8,213.333
				v-17.067h17.067l0.017,17.067H204.8z"/>
		</g>
	</g>
</g>
<g>
</g>
<g>
</g>
<g>
</g>
<g>
</g>
<g>
</g>
<g>
</g>
<g>
</g>
<g>
</g>
<g>
</g>
<g>
</g>
<g>
</g>
<g>
</g>
<g>
</g>
<g>
</g>
<g>
</g>
</svg>
