<?xml version="1.0"?>
<svg xmlns="http://www.w3.org/2000/svg" xmlns:xlink="http://www.w3.org/1999/xlink" xmlns:svgjs="http://svgjs.com/svgjs" version="1.1" width="512" height="512" x="0" y="0" viewBox="0 0 64 64" style="enable-background:new 0 0 512 512" xml:space="preserve" class=""><g><script/><g xmlns="http://www.w3.org/2000/svg"><path d="m13 14h2v2h-2z" fill="#ffffff" data-original="#000000" style=""/><path d="m9 14h2v2h-2z" fill="#ffffff" data-original="#000000" style=""/><path d="m5 14h2v2h-2z" fill="#ffffff" data-original="#000000" style=""/><path d="m26 22h-16c-1.654 0-3 1.346-3 3v2c0 1.302.839 2.402 2 2.816v2.369c-1.161.413-2 1.513-2 2.815v2c0 1.302.839 2.402 2 2.816v2.369c-1.161.413-2 1.513-2 2.815v2c0 1.654 1.346 3 3 3h16c1.654 0 3-1.346 3-3v-2c0-1.302-.839-2.402-2-2.816v-2.369c1.161-.414 2-1.514 2-2.816v-2c0-1.302-.839-2.402-2-2.816v-2.369c1.161-.414 2-1.514 2-2.816v-2c0-1.652-1.346-2.998-3-2.998zm-15 10v-2h14v2zm0 10v-2h14v2zm16 5c0 .552-.449 1-1 1h-16c-.551 0-1-.448-1-1v-2c0-.552.449-1 1-1h16c.551 0 1 .448 1 1zm0-10c0 .552-.449 1-1 1h-16c-.551 0-1-.448-1-1v-2c0-.552.449-1 1-1h16c.551 0 1 .448 1 1zm0-10c0 .552-.449 1-1 1h-16c-.551 0-1-.448-1-1v-2c0-.552.449-1 1-1h16c.551 0 1 .448 1 1z" fill="#ffffff" data-original="#000000" style=""/><path d="m46 19h14c1.654 0 3-1.346 3-3v-12c0-1.654-1.346-3-3-3h-14c-1.654 0-3 1.346-3 3v5h-3c-1.654 0-3 1.346-3 3v12c0 .552-.449 1-1 1h-1v-12c0-1.654-1.346-3-3-3h-28c-1.654 0-3 1.346-3 3v38c0 1.654 1.346 3 3 3h28c1.654 0 3-1.346 3-3v-12h1c.551 0 1 .448 1 1v12c0 1.654 1.346 3 3 3h3v5c0 1.654 1.346 3 3 3h14c1.654 0 3-1.346 3-3v-12c0-1.654-1.346-3-3-3h-14c-1.654 0-3 1.346-3 3v5h-3c-.551 0-1-.448-1-1v-12c0-1.654-1.346-3-3-3h-1v-4h8v5c0 1.654 1.346 3 3 3h14c1.654 0 3-1.346 3-3v-12c0-1.654-1.346-3-3-3h-14c-1.654 0-3 1.346-3 3v5h-8v-4h1c1.654 0 3-1.346 3-3v-12c0-.552.449-1 1-1h3v5c0 1.654 1.346 3 3 3zm14 42h-14c-.551 0-1-.448-1-1v-9h16v9c0 .552-.449 1-1 1zm-14-14h14c.551 0 1 .448 1 1v1h-16v-1c0-.552.449-1 1-1zm14-8h-14c-.551 0-1-.448-1-1v-9h16v9c0 .552-.449 1-1 1zm-14-14h14c.551 0 1 .448 1 1v1h-16v-1c0-.552.449-1 1-1zm-42-13h28c.551 0 1 .448 1 1v5h-30v-5c0-.552.449-1 1-1zm28 40h-28c-.551 0-1-.448-1-1v-31h30v31c0 .552-.449 1-1 1zm28-35h-14c-.551 0-1-.448-1-1v-9h16v9c0 .552-.449 1-1 1zm-14-14h14c.551 0 1 .448 1 1v1h-16v-1c0-.552.449-1 1-1z" fill="#ffffff" data-original="#000000" style=""/><path d="m47 9h12v2h-12z" fill="#ffffff" data-original="#000000" style=""/><path d="m57 13h2v2h-2z" fill="#ffffff" data-original="#000000" style=""/><path d="m47 13h8v2h-8z" fill="#ffffff" data-original="#000000" style=""/><path d="m47 53h12v2h-12z" fill="#ffffff" data-original="#000000" style=""/><path d="m57 57h2v2h-2z" fill="#ffffff" data-original="#000000" style=""/><path d="m47 57h8v2h-8z" fill="#ffffff" data-original="#000000" style=""/><path d="m47 31h12v2h-12z" fill="#ffffff" data-original="#000000" style=""/><path d="m57 35h2v2h-2z" fill="#ffffff" data-original="#000000" style=""/><path d="m47 35h8v2h-8z" fill="#ffffff" data-original="#000000" style=""/></g></g></svg>
